<svg version="1.1" viewBox="0.0 0.0 250.0 250.0" fill="none" stroke="none" stroke-linecap="square" stroke-miterlimit="10" xmlns:xlink="http://www.w3.org/1999/xlink" xmlns="http://www.w3.org/2000/svg"><clipPath id="p.0"><path d="m0 0l250.0 0l0 250.0l-250.0 0l0 -250.0z" clip-rule="nonzero"/></clipPath><g clip-path="url(#p.0)"><path fill="#000000" fill-opacity="0.0" d="m0 0l250.0 0l0 250.0l-250.0 0z" fill-rule="evenodd"/><path fill="#ffffff" d="m3.2519686 125.0l0 0c0 -67.248276 54.50845 -121.76378 121.74803 -121.76378l0 0c32.28958 0 63.256668 12.828647 86.08885 35.663784c22.8322 22.83514 35.65918 53.806232 35.65918 86.09999l0 0c0 67.248276 -54.508453 121.76378 -121.74803 121.76378l0 0c-67.23958 0 -121.74803 -54.515503 -121.74803 -121.76378z" fill-rule="evenodd"/><path fill="#000000" fill-opacity="0.0" d="m42.6063 0.6535433l89.196846 0l0 108.34646l-89.196846 0z" fill-rule="evenodd"/><path fill="#000000" d="m88.684425 39.650414l7.078125 0l35.406242 85.203125l-8.874992 0l-11.046875 -26.640625l-38.28125 0l-10.921875 26.640625l-9.0 0l35.640625 -85.203125zm20.640625 51.96875l-17.15625 -42.125l-17.40625 42.125l34.5625 0z" fill-rule="nonzero"/><path fill="#000000" fill-opacity="0.0" d="m81.20473 43.299213l54.551178 0l0 108.346466l-54.551178 0z" fill-rule="evenodd"/><path fill="#000000" d="m159.32973 82.29608l-56.640625 85.203125l-9.25 0l56.640625 -85.203125l9.25 0z" fill-rule="nonzero"/><path fill="#000000" fill-opacity="0.0" d="m119.538055 76.69029l72.944885 0l0 96.0l-72.944885 0z" fill-rule="evenodd"/><path fill="#000000" d="m189.02243 131.65591q-3.609375 -4.078125 -9.609375 -6.59375q-6.0 -2.53125 -13.671875 -2.53125q-11.28125 0 -16.453125 4.265625q-5.15625 4.25 -5.15625 11.578125q0 3.828125 1.375 6.296875q1.390625 2.453125 4.265625 4.265625q2.890625 1.796875 7.390625 3.125q4.5 1.3125 10.609375 2.625q6.84375 1.4375 12.296875 3.25q5.46875 1.796875 9.3125 4.5q3.84375 2.6875 5.875 6.53125q2.046875 3.84375 2.046875 9.609375q0 5.875 -2.28125 10.203125q-2.28125 4.3125 -6.359375 7.1875q-4.078125 2.875 -9.71875 4.265625q-5.640625 1.375 -12.359375 1.375q-19.8125 0 -34.203125 -12.359375l4.203125 -6.84375q2.265625 2.40625 5.453125 4.5625q3.1875 2.15625 7.078125 3.78125q3.90625 1.625 8.34375 2.53125q4.4375 0.890625 9.359375 0.890625q10.203125 0 15.890625 -3.65625q5.703125 -3.671875 5.703125 -11.109375q0 -3.953125 -1.625 -6.65625q-1.609375 -2.703125 -4.859375 -4.671875q-3.234375 -1.984375 -8.03125 -3.421875q-4.796875 -1.453125 -11.15625 -2.890625q-6.71875 -1.5625 -11.765625 -3.234375q-5.03125 -1.6875 -8.515625 -4.203125q-3.484375 -2.515625 -5.234375 -6.046875q-1.734375 -3.546875 -1.734375 -8.703125q0 -5.890625 2.21875 -10.5q2.234375 -4.625 6.3125 -7.6875q4.078125 -3.0625 9.59375 -4.671875q5.515625 -1.625 12.234375 -1.625q8.53125 0 15.1875 2.578125q6.65625 2.578125 12.0625 7.265625l-4.078125 6.71875z" fill-rule="nonzero"/></g></svg>